/* XPM */
static char *pixil_frame_41644179030[] = {
/* columns rows colors chars-per-pixel */
"64 64 4 1 ",
"  c None",
". c #0534A1",
"X c #0048FF",
"o c white",
/* pixels */
"                                                                ",
"                                                                ",
"                                                                ",
"                                                                ",
"                                                                ",
"                                                                ",
"                                                                ",
"                                                                ",
"                                                                ",
"                                                                ",
"                                                                ",
"                                                                ",
"                                                                ",
"                                                                ",
"                                    .                           ",
"                                   ...                          ",
"                                   .X..                         ",
"                                  ..XX..                        ",
"                                 ..XXXX.......                  ",
"         .....                  ..XXXXXXXXXXX...                ",
"         .XXX...              ....XXXXXXXXXXXXX..               ",
"         .XXXXX..           ...XXXXXXXXXXXXXXXXX...             ",
"         ..XXXXX..       ....XXXXXXXXXXXXXXXXXXXXX..            ",
"          ..XXXXX.........XXXXXXXXXXXXXXXXXXXXXXXXX..           ",
"           ...XXXXXXXXXXXXXXXXXXXXXXXXXXXXXXXXXXXXXX.           ",
"             .XXXXXXXXXXXXXXXXXXXXXXXXXXXXXXXXXoooXX..          ",
"             .XXXXXXXXXXXXXXXXXXXXXXXXXXXXXXXXoooooXX.          ",
"             ..XXXXXXXXXXXXXXXXXXXXXXXXXXXXXXXoooooXX..         ",
"            .....XXXXXXXXXXXXXXXXXXXXXXXXXXXXXXoooXXX..         ",
"            ..............XXXXXXXXXXXXXXXXXXXXXXXXXX...         ",
"           .......    .........XXXXXXXXXXXXXXXXXXX.....         ",
"           ......       .........XXXXXXXXXXXXX........          ",
"           .....         ..............XXXX...........          ",
"            ...             ........................            ",
"                              ...................               ",
"                                    .........                   ",
"                                                                ",
"                                                                ",
"                                                                ",
"                                                                ",
"                                                                ",
"                                                                ",
"                                                                ",
"                                                                ",
"                                                                ",
"                                                                ",
"                                                                ",
"                                                                ",
"                                                                ",
"                                                                ",
"                                                                ",
"                                                                ",
"                                                                ",
"                                                                ",
"                                                                ",
"                                                                ",
"                                                                ",
"                                                                ",
"                                                                ",
"                                                                ",
"                                                                ",
"                                                                ",
"                                                                ",
"                                                                "
};
