/* XPM */
static char *pixil_frame_11644179029[] = {
/* columns rows colors chars-per-pixel */
"64 64 4 1 ",
"  c None",
". c #0534A1",
"X c #0048FF",
"o c white",
/* pixels */
"                                                                ",
"                                                                ",
"                                                                ",
"                                                                ",
"                                                                ",
"                                                                ",
"                                                                ",
"                                                                ",
"                                                                ",
"                                                                ",
"                                                                ",
"                                                                ",
"                                                                ",
"                                                                ",
"                                                                ",
"                                    .                           ",
"                                   ...                          ",
"                                   .X..                         ",
"                                  ..XX..                        ",
"                                 ..XXXX.......                  ",
"          .....                 ..XXXXXXXXXXX...                ",
"          .XXX..              ....XXXXXXXXXXXXX..               ",
"          .XXXX..           ...XXXXXXXXXXXXXXXXX...             ",
"          ..XXXX..       ....XXXXXXXXXXXXXXXXXXXXX..            ",
"           ..XXXX.........XXXXXXXXXXXXXXXXXXXXXXXXX..           ",
"            ...XXXXXXXXXXXXXXXXXXXXXXXXXXXXXXXXXXXXX.           ",
"              .XXXXXXXXXXXXXXXXXXXXXXXXXXXXXXXXoooXX..          ",
"              .XXXXXXXXXXXXXXXXXXXXXXXXXXXXXXXoooooXX.          ",
"              .XXXXXXXXXXXXXXXXXXXXXXXXXXXXXXXoooooXX..         ",
"             ..XXXXXXXXXXXXXXXXXXXXXXXXXXXXXXXXoooXXX..         ",
"             .XXX.........XXXXXXXXXXXXXXXXXXXXXXXXXX...         ",
"            ..XX..    .........XXXXXXXXXXXXXXXXXXX.....         ",
"            .XX..       .........XXXXXXXXXXXXX........          ",
"            ..X.         ..............XXXX...........          ",
"             ..             ........................            ",
"                              ...................               ",
"                                    .........                   ",
"                                                                ",
"                                                                ",
"                                                                ",
"                                                                ",
"                                                                ",
"                                                                ",
"                                                                ",
"                                                                ",
"                                                                ",
"                                                                ",
"                                                                ",
"                                                                ",
"                                                                ",
"                                                                ",
"                                                                ",
"                                                                ",
"                                                                ",
"                                                                ",
"                                                                ",
"                                                                ",
"                                                                ",
"                                                                ",
"                                                                ",
"                                                                ",
"                                                                ",
"                                                                ",
"                                                                "
};
