/* XPM */
static char *player_01644167114[] = {
/* columns rows colors chars-per-pixel */
"64 64 6 1 ",
"  c None",
". c #294040",
"X c #364747",
"o c #4E7575",
"O c #5B8080",
"+ c #669494",
/* pixels */
"                                                                ",
"                                                                ",
"                                                                ",
"                                                                ",
"                                                                ",
"                                                                ",
"                                                                ",
"                                                                ",
"                                                                ",
"                                                                ",
"                                                                ",
"                                                                ",
"                                                                ",
"                                                                ",
"                                                                ",
"                                                                ",
"                                    .                           ",
"                                   ...                          ",
"                                   .O..                         ",
"                                  ..OO..                        ",
"                                 ..OOOO.......                  ",
"         .....                  ..OOOoOOOOOOO...                ",
"         .OOO...              ....Ooooooooooooo..               ",
"         .OoOOO..           ...OOOOooooooooooooo...             ",
"         ..OOooO..       ....OOOOooooooooooooooooo..            ",
"          ..OOOoO.........OOOOooooooooooooOOOoooooo..           ",
"           ...OoOOOOOOOOOOOOOooooooOOoooOOOooooooooo.           ",
"             .OOOOOOOOOOooooooooooOOoooOOooooooX+ooo..          ",
"             .OOOOOOoooooooooooooOooooOooooooooXXoooo.          ",
"             .OoooooooooooooooooOooooOooooooooooooooo..         ",
"            ..OooooooooooooooooooooooOoooooooooooooooO.         ",
"            .OOOO......OOOooooooooooooooooOOOoooooooOO.         ",
"           ..OOO..    ...OXOOOXoooooooooooooooooooOXO..         ",
"           .OOO..       ..OXOXOOOoooooooooooooOOXOOOO.          ",
"           ..O..         ...OOOOXOXOOOOooooOXOOXOXO...          ",
"            ...             ...XOOOOOXOXOOXOOOXO....            ",
"                              .......OOOXOOO.....               ",
"                                    .........                   ",
"                                                                ",
"                                                                ",
"                                                                ",
"                                                                ",
"                                                                ",
"                                                                ",
"                                                                ",
"                                                                ",
"                                                                ",
"                                                                ",
"                                                                ",
"                                                                ",
"                                                                ",
"                                                                ",
"                                                                ",
"                                                                ",
"                                                                ",
"                                                                ",
"                                                                ",
"                                                                ",
"                                                                ",
"                                                                ",
"                                                                ",
"                                                                ",
"                                                                ",
"                                                                "
};
