/* XPM */
static char *player_21644167114[] = {
/* columns rows colors chars-per-pixel */
"64 64 6 1 ",
"  c None",
". c #294040",
"X c #364747",
"o c #4E7575",
"O c #5B8080",
"+ c #669494",
/* pixels */
"                                                                ",
"                                                                ",
"                                                                ",
"                                                                ",
"                                                                ",
"                                                                ",
"                                                                ",
"                                                                ",
"                                                                ",
"                                                                ",
"                                                                ",
"                                                                ",
"                                                                ",
"                                                                ",
"                                    .                           ",
"                                   ...                          ",
"                                   .O..                         ",
"                                  ..OO..                        ",
"                                 ..OOOO.......                  ",
"            ....                ..OOOoOOOOOOO...                ",
"            OOO..             ....Ooooooooooooo..               ",
"            OoOOO.          ...OOOOooooooooooooo...             ",
"            .OOoo..      ....OOOOooooooooooooooooo..            ",
"            ..OOOO........OOOOooooooooooooOOOoooooo..           ",
"             ...OOOOOOOOOOOOOooooooOOoooOOOooooooooo.           ",
"               .OOOOOOOOooooooooooOOoooOOooooooX+ooo..          ",
"               .OOOOOooooooooooooOooooOooooooooXXoooo.          ",
"               .OoooooooooooooooOooooOooooooooooooooo..         ",
"              ..OooooooooooooooooooooOoooooooooooooooO.         ",
"              .OOO.....OOOooooooooooooooooOOOoooooooOO.         ",
"             ..OO..   ...OXOOOXoooooooooooooooooooOXO..         ",
"             .OOO.      ..OXOXOOOoooooooooooooOOXOOOO.          ",
"             ..O.        ...OOOOXOXOOOOooooOXOOXOXO...          ",
"              ...           ...XOOOOOXOXOOXOOOXO....            ",
"                              .......OOOXOOO.....               ",
"                                    .........                   ",
"                                                                ",
"                                                                ",
"                                                                ",
"                                                                ",
"                                                                ",
"                                                                ",
"                                                                ",
"                                                                ",
"                                                                ",
"                                                                ",
"                                                                ",
"                                                                ",
"                                                                ",
"                                                                ",
"                                                                ",
"                                                                ",
"                                                                ",
"                                                                ",
"                                                                ",
"                                                                ",
"                                                                ",
"                                                                ",
"                                                                ",
"                                                                ",
"                                                                ",
"                                                                ",
"                                                                ",
"                                                                "
};
