/* XPM */
static char *pixil_frame_31644179030[] = {
/* columns rows colors chars-per-pixel */
"64 64 4 1 ",
"  c None",
". c #0534A1",
"X c #0048FF",
"o c white",
/* pixels */
"                                                                ",
"                                                                ",
"                                                                ",
"                                                                ",
"                                                                ",
"                                                                ",
"                                                                ",
"                                                                ",
"                                                                ",
"                                                                ",
"                                                                ",
"                                                                ",
"                                                                ",
"                                    .                           ",
"                                   ...                          ",
"                                   .X..                         ",
"                                  ..XX..                        ",
"                                 ..XXXX.......                  ",
"          ....                  ..XXXXXXXXXXX...                ",
"          .XXX..              ....XXXXXXXXXXXXX..               ",
"          .XXXX..           ...XXXXXXXXXXXXXXXXX...             ",
"          ..XXXX..       ....XXXXXXXXXXXXXXXXXXXXX..            ",
"           ..XXXX.........XXXXXXXXXXXXXXXXXXXXXXXXX..           ",
"            ..XXXXXXXXXXXXXXXXXXXXXXXXXXXXXXXXXXXXXX.           ",
"              XXXXXXXXXXXXXXXXXXXXXXXXXXXXXXXXXoooXX..          ",
"              XXXXXXXXXXXXXXXXXXXXXXXXXXXXXXXXoooooXX.          ",
"              XXXXXXXXXXXXXXXXXXXXXXXXXXXXXXXXoooooXX..         ",
"             .XXXXXXXXXXXXXXXXXXXXXXXXXXXXXXXXXoooXXX..         ",
"             .XXX..........XXXXXXXXXXXXXXXXXXXXXXXXX...         ",
"            ..XX..    .........XXXXXXXXXXXXXXXXXXX.....         ",
"            ..X..       .........XXXXXXXXXXXXX........          ",
"            ....         ..............XXXX...........          ",
"             ..             ........................            ",
"                              ...................               ",
"                                    .........                   ",
"                                                                ",
"                                                                ",
"                                                                ",
"                                                                ",
"                                                                ",
"                                                                ",
"                                                                ",
"                                                                ",
"                                                                ",
"                                                                ",
"                                                                ",
"                                                                ",
"                                                                ",
"                                                                ",
"                                                                ",
"                                                                ",
"                                                                ",
"                                                                ",
"                                                                ",
"                                                                ",
"                                                                ",
"                                                                ",
"                                                                ",
"                                                                ",
"                                                                ",
"                                                                ",
"                                                                ",
"                                                                ",
"                                                                "
};
