/* XPM */
static char *pixil_frame_21644179030[] = {
/* columns rows colors chars-per-pixel */
"64 64 4 1 ",
"  c None",
". c #0534A1",
"X c #0048FF",
"o c white",
/* pixels */
"                                                                ",
"                                                                ",
"                                                                ",
"                                                                ",
"                                                                ",
"                                                                ",
"                                                                ",
"                                                                ",
"                                                                ",
"                                                                ",
"                                                                ",
"                                                                ",
"                                                                ",
"                                                                ",
"                                    .                           ",
"                                   ...                          ",
"                                   .X..                         ",
"                                  ..XX..                        ",
"                                 ..XXXX.......                  ",
"            ....                ..XXXXXXXXXXX...                ",
"            XXX..             ....XXXXXXXXXXXXX..               ",
"            XXXXX.          ...XXXXXXXXXXXXXXXXX...             ",
"            .XXXX..      ....XXXXXXXXXXXXXXXXXXXXX..            ",
"            ..XXXX........XXXXXXXXXXXXXXXXXXXXXXXXX..           ",
"             ...XXXXXXXXXXXXXXXXXXXXXXXXXXXXXXXXXXXX.           ",
"               .XXXXXXXXXXXXXXXXXXXXXXXXXXXXXXXoooXX..          ",
"               .XXXXXXXXXXXXXXXXXXXXXXXXXXXXXXoooooXX.          ",
"               .XXXXXXXXXXXXXXXXXXXXXXXXXXXXXXoooooXX..         ",
"              ..XXX....XXXXXXXXXXXXXXXXXXXXXXXXoooXX...         ",
"              .XX.........XXXXXXXXXXXXXXXXXXXXXXXXXX...         ",
"             ..XX..   .........XXXXXXXXXXXXXXXXXXX.....         ",
"             ..X..      .........XXXXXXXXXXXXX........          ",
"             ....        ..............XXXX...........          ",
"              ...           ........................            ",
"                              ...................               ",
"                                    .........                   ",
"                                                                ",
"                                                                ",
"                                                                ",
"                                                                ",
"                                                                ",
"                                                                ",
"                                                                ",
"                                                                ",
"                                                                ",
"                                                                ",
"                                                                ",
"                                                                ",
"                                                                ",
"                                                                ",
"                                                                ",
"                                                                ",
"                                                                ",
"                                                                ",
"                                                                ",
"                                                                ",
"                                                                ",
"                                                                ",
"                                                                ",
"                                                                ",
"                                                                ",
"                                                                ",
"                                                                ",
"                                                                "
};
