/* XPM */
static char *c66647fae8e54895fc93959cd6f65327txGNvXjdLqvnlvr3[] = {
/* columns rows colors chars-per-pixel */
"64 64 2 1 ",
"  c #7B1FA2",
". c #E1BEE7",
/* pixels */
"................................................................",
"................................................................",
"................................................................",
".........................                       ................",
"......................            ...........     ..............",
"....................      ......................................",
".................     ..........................................",
".............       ............................................",
"............      ..............................................",
"...........      ...............................................",
"...........    .................................................",
".........     ..................................................",
".........    ...................................................",
"........    ....................................................",
"........   .....................................................",
".......    .....................................................",
".......   ......................................................",
"......    ......................................................",
"......   .......................................................",
".....    .......................................................",
".....   ........................................................",
".....   ........................................................",
".....  .........................................................",
"....   .........................................................",
"....   .........................................................",
"....   .........................................................",
"....  ..........................................................",
"....  ..........................................................",
"....  ..........................................................",
"....  ..........................................................",
"....  ..........................................................",
"....  ..........................................................",
"....  ..........................................................",
"....  ..........................................................",
"....  ..........................................................",
"....  ..........................................................",
"....  ..........................................................",
"....  ..........................................................",
"....  ..........................................................",
"..... ..........................................................",
".....  .........................................................",
".....  .........................................................",
".....  .........................................................",
"...... .........................................................",
"......  ........................................................",
"......  ........................................................",
"....... ........................................................",
".......  .......................................................",
"........ .......................................................",
"........  ......................................................",
".........  .....................................................",
".........   ....................................................",
"...........  ...................................................",
"............   .................................................",
".............    ...............................................",
"................   .................................  ..........",
"...................     ...........................  ...........",
"......................        ..................    ............",
"..........................                         .............",
"..............................                 .................",
"................................................................",
"................................................................",
"................................................................",
"................................................................"
};
