/* XPM */
static char *result[] = {
/* columns rows colors chars-per-pixel */
"64 64 2 1 ",
"  c #001E80",
". c #00FFEE",
/* pixels */
"................................................................",
"............     .......................................   .....",
"..........  ...............                 ..............  ....",
".....................      .................       .............",
".....  ...........    ............................     .........",
".... .........     ...................................  ........",
".... .......   .........................................  ......",
"... .......  ............                    ............  .....",
"... ......  .........     ...................    .........  ....",
"......... .......    ............................  ........ ....",
"........  .....   ................................  ....... ....",
"....... ......  ..............            .......... ...........",
"......  ...... ...........................  .........  .........",
"...... ...... ..............................  ........  .... ...",
"...... .....  ................................  ....... .... ...",
"..... ...... ...............              ..... .......  ...  ..",
"..... .....  ...........    .............    ........... .......",
"..... ..... ..........   ...................  .......... .......",
"..... ..... ........   ......................  ......... .......",
"..... .... .... ...  .......            ......  ........  ......",
"....  .... ...  ..  ......   ..........  ...... ......... ... ..",
".... ..... ... ... ......  .............. ..... ....... . .... .",
".... ..... ..  ..  ..... ................  .... ......  . .... .",
"... ...... .. ... ..... ..................  ...  .....  .  .....",
"... ...... .. ... ..... ......       ...... .... ...... .. .....",
"... .. ... .. ... .... ......  .....  ..... ....  ..... .. .....",
"... .. ..  .. ... .... ..... ........  ..... .... ..... .. .....",
"... .  .. ... ... .... ....  ......... ..... .... ....  .. .....",
"... . ... ... ... .... .... ....  .... ..... ..... ... ... .....",
"... . ... ... ... .... .... ..  . ..... ....  .... ... ... .....",
"... . ... ....... .... .... .. .. ..... ..... .... ... ... .....",
"... .  .. ....... ....  ... ....  ..... ..... .... .. .... .....",
"... .. ..  ......  .... ...   .  ...... .... ..... .. ... ......",
"... ...... ....... ....  ....  .......  .... ..... ...... ......",
"... ...... ....... ..... ............. ..... ..... ...... ...  .",
".... ..... .......  .... ............ .....  ..... .....  ... ..",
".... ..... ........ .....  ........  ...... ...... ..... .... ..",
".... ...... ....... ......          ......  .....  ....  ... ...",
".... ...... .......  ..................... ...... ..... ........",
".... ......  ....... ....................  .....  ..... ........",
".... ....... ....... .................... ...... .....  ........",
"....  ......  ......  .................  ......  ..... .........",
"..... ....... ........  ............    ......  .....  .........",
"..... ....... ..........             ........  ...... ..........",
".....  ......  .............................  ......  ..........",
"...... ........ ..........................  ........ .....  ....",
"......  ........ ......................   .........  ..... .....",
"....... .........  ..................   ..........  .....  .....",
".......  ..........  .............   ............  ...... ......",
"........ ............             ..............  ......  ......",
"........   ....................................  ....... .......",
"..........  .................................  ........ ........",
".... ......  ..............................   .......  .........",
".... .......   ......         ..........    ........  .....  ...",
"..... .........  ...................     ........... .....  ....",
".....  ..........       .           .....................  .....",
"......  ...............  ...............................  ......",
".......   ............................................   .......",
"..........   ..............................   .....    .........",
"... ........     ...................       .....................",
"...  ......................................................   ..",
".....   ................      .........................     ....",
"....................................................... ........",
"................................................................"
};
