/* XPM */
static char *efe88223073e4c1cc4aef99a45c8f0c6QuSIq9EBvBTkOnF7[] = {
/* columns rows colors chars-per-pixel */
"64 64 2 1 ",
"  c black",
". c #EF5350",
/* pixels */
"................................................................",
"................................................................",
"................................................................",
"................................................................",
"................................................................",
"....................      ......................................",
"...........         ......                   ...................",
"........... ....................................................",
"........... ....................................................",
"........... ....................................................",
"........... ....................................................",
"........... ....................................................",
"........... ....................................................",
"........... ....................................................",
"........... ....................................................",
"........... ....................................................",
"........... ....................................................",
"........... ....................................................",
"........... ....................................................",
"........... ....................................................",
"........... ....................................................",
"........... ....................................................",
"........... ....................................................",
"........... ....................................................",
"........... ....................................................",
"........... ....................................................",
"........... ....................              ..................",
"........... ...........         ................................",
"........... ..         .........................................",
"...........   ..................................................",
"........... ....................................................",
"........... ....................................................",
".......... .....................................................",
".......... .....................................................",
".......... .....................................................",
".......... .....................................................",
".......... .....................................................",
".......... .....................................................",
".......... .....................................................",
".......... .....................................................",
".......... .....................................................",
".......... .....................................................",
".......... .....................................................",
".......... .....................................................",
".......... .....................................................",
".......... .....................................................",
".......... .....................................................",
".......... .....................................................",
".......... .....................................................",
".......... .....................................................",
".......... .....................................................",
".......... ....................................... .............",
".......... ..........................              .............",
".......... .......................   ...........................",
".......... ...................    ..............................",
"..........                    ..................................",
"................................................................",
"................................................................",
"................................................................",
"................................................................",
"................................................................",
"................................................................",
"................................................................",
"................................................................"
};
