/* XPM */
static char *result[] = {
/* columns rows colors chars-per-pixel */
"64 64 101 2 ",
"   c #000101",
".  c #0A0202",
"X  c #050708",
"o  c #06090A",
"O  c #0A0C0C",
"+  c #0A0E10",
"@  c #0E1214",
"#  c #111313",
"$  c #10171A",
"%  c #141C1E",
"&  c #151F22",
"*  c #162024",
"=  c #1D2121",
"-  c #1A272C",
";  c #1F2F34",
":  c #252626",
">  c #2B2F2F",
",  c #203036",
"<  c #23343A",
"1  c gray22",
"2  c #420B0B",
"3  c #4A0C0C",
"4  c #4F1415",
"5  c #591415",
"6  c #661515",
"7  c #671718",
"8  c #691819",
"9  c #66363A",
"0  c #273A41",
"q  c #283C43",
"w  c #2D434A",
"e  c #3E4647",
"r  c #324A52",
"t  c #354F58",
"y  c #36515A",
"u  c #39555E",
"i  c #3A5761",
"p  c #3C5A64",
"a  c #3F5E69",
"s  c #475557",
"d  c #515656",
"f  c #565A5A",
"g  c #66474E",
"h  c #62555E",
"j  c #41626D",
"k  c #446672",
"l  c #466A76",
"z  c #486B77",
"x  c #496E7A",
"c  c #576A75",
"v  c #4B717D",
"b  c #646E6E",
"n  c #6E7979",
"m  c #4D7481",
"M  c #517683",
"N  c #507886",
"B  c #587B86",
"V  c #537D8B",
"C  c #5D7F89",
"Z  c #627B81",
"A  c #667B88",
"S  c #56818F",
"D  c #578391",
"F  c #588493",
"G  c #5B8897",
"H  c #5D8C9B",
"J  c #768383",
"K  c #668695",
"L  c #648995",
"P  c #608F9F",
"I  c #7B9297",
"U  c #73959E",
"Y  c #6394A4",
"T  c #6597A8",
"R  c #669AAB",
"E  c #6A9CAD",
"W  c #729FAD",
"Q  c #699EB0",
"!  c #73A1AF",
"~  c #7BA2AE",
"^  c #7DA5B1",
"/  c #8A9797",
"(  c #86999B",
")  c #8B9B9C",
"_  c #8AA3A7",
"`  c #95A4A4",
"'  c #87A9B2",
"]  c #8BACB3",
"[  c #92AEB4",
"{  c #9AB2B5",
"}  c #9CB5B8",
"|  c #A4B6B6",
" . c #A1B7BA",
".. c #A6BBBD",
"X. c #ADBDBD",
"o. c #B0BFBE",
"O. c #D8DDDD",
"+. c #D4DFE0",
"@. c #E4E4E4",
"#. c #E8EBEB",
"$. c None",
/* pixels */
"$.$.$.$.$.$.$.$.$.$.$.$.$.$.$.$.$.$.$.$.$.$.$.$.$.$.$.$.$.$.$.$.$.$.$.$.$.$.$.$.$.$.$.$.$.$.$.$.$.$.$.$.$.$.$.$.$.$.$.$.$.$.$.$.",
"$.$.$.$.$.$.$.$.$.$.$.$.$.$.$.$.$.$.$.$.$.$.$.$.$.$.$.$.$.$.$.$.$.$.$.$.$.$.$.$.$.$.$.$.$.$.$.$.$.$.$.$.$.$.$.$.$.$.$.$.$.$.$.$.",
"$.$.$.$.$.$.$.$.$.$.$.$.$.$.$.$.$.$.$.$.$.$.$.$.$.$.$.$.$.$.$.$.$.$.$.$.$.$.$.$.$.$.$.$.$.$.$.$.$.$.$.$.$.$.$.$.$.$.$.$.$.$.$.$.",
"$.$.$.$.$.$.$.$.$.$.$.$.$.$.$.$.$.$.$.$.$.$.$.$.$.$.$.$.$.$.$.$.$.$.$.$.$.$.$.$.$.$.$.$.$.$.$.$.$.$.$.$.$.$.$.$.$.$.$.$.$.$.$.$.",
"$.$.$.$.$.$.$.$.$.$.$.$.$.$.$.$.$.$.$.$.$.$.$.$.$.$.$.$.$.$.$.$.$.$.$.$.$.$.$.$.$.$.$.$.$.$.$.$.$.$.$.$.$.$.$.$.$.$.$.$.$.$.$.$.",
"$.$.$.$.$.$.$.$.$.$.$.$.$.$.$.$.$.$.$.$.$.$.$.$.$.$.$.$.$.$.$.$.$.$.$.$.$.$.$.$.$.$.$.$.$.$.$.$.$.$.$.$.$.$.$.$.$.$.$.$.$.$.$.$.",
"$.$.$.$.$.$.$.$.$.$.$.$.$.$.$.$.$.$.$.$.$.$.$.$.$.$.$.$.$.$.$.$.$.$.$.$.$.$.$.$.$.$.$.$.$.$.$.$.$.$.$.$.$.$.$.$.$.$.$.$.$.$.$.$.",
"$.$.$.$.$.$.$.$.$.$.$.$.$.$.$.$.$.$.$.$.$.$.$.$.$.$.$.$.$.$.$.$.$.$.$.$.$.$.$.$.$.$.$.$.$.$.$.$.$.$.$.$.$.$.$.$.$.$.$.$.$.$.$.$.",
"$.$.$.$.$.$.$.$.$.$.$.$.$.$.$.$.$.$.$.$.$.$.$.$.$.$.$.$.$.$.$.$.$.$.$.$.$.$.$.$.$.$.$.$.$.$.$.$.$.$.$.$.$.$.$.$.$.$.$.$.$.$.$.$.",
"$.$.$.$.$.$.$.$.$.$.$.$.$.$.$.$.$.$.$.$.$.$.$.$.$.$.$.$.$.$.$.$.$.$.$.$.$.$.$.$.$.$.$.$.$.$.$.$.$.$.$.$.$.$.$.$.$.$.$.$.$.$.$.$.",
"$.$.$.$.$.$.$.$.$.$.$.$.$.$.$.$.$.$.$.$.$.$.$.$.$.$.$.$.$.$.$.$.$.$.$.$.$.$.$.$.$.$.$.$.$.$.$.$.$.$.$.$.$.$.$.$.$.$.$.$.$.$.$.$.",
"$.$.$.$.$.$.$.$.$.$.$.$.$.$.$.$.$.$.$.$.$.$.$.$.$.$.$.$.$.$.$.$.$.$.$.$.$.$.$.$.$.$.$.$.$.$.$.$.$.$.$.$.$.$.$.$.$.$.$.$.$.$.$.$.",
"$.$.$.$.$.$.$.$.$.$.$.$.$.$.$.$.$.$.$.$.$.$.$.$.$.$.$.$.$.$.$.$.$.$.$.$.$.$.$.$.$.$.$.$.$.$.$.$.$.$.$.$.$.$.$.$.$.$.$.$.$.$.$.$.",
"$.$.$.$.$.$.$.$.$.$.$.$.$.$.$.$.$.$.$.$.$.$.$.$.$.$.$.$.$.$.$.$.$.$.$.$.$.$.$.$.$.$.$.$.$.$.$.$.$.$.$.$.$.$.$.$.$.$.$.$.$.$.$.$.",
"$.$.$.$.$.$.$.$.$.$.$.$.$.$.$.$.$.$.$.$.$.$.$.$.$.$.$.$.$.$.$.$.$.$.$.$.$.$.$.$.$.$.$.$.$.$.$.$.$.$.$.$.$.$.$.$.$.$.$.$.$.$.$.$.",
"$.$.$.$.$.$.$.$.$.$.$.$.$.$.$.$.$.$.$.$.$.$.$.$.$.$.$.$.$.$.$.$.$.$.$.$.$.$.$.$.$.$.$.$.$.$.$.$.$.$.$.$.$.$.$.$.$.$.$.$.$.$.$.$.",
"$.$.$.$.$.$.$.$.$.$.$.$.$.$.$.$.$.$.$.$.$.$.$.$.$.$.$.$.$.$.$.$.$.$.$.$.$.$.$.$.$.$.$.$.$.$.$.$.$.$.$.$.$.$.$.$.$.$.$.$.$.$.$.$.",
"$.$.$.$.$.$.$.$.$.$.$.$.$.$.$.$.$.$.$.$.$.$.$.$.$.$.$.$.$.$.$.$.$.$.$.$.$.$.$.$.$.$.$.$.$.$.$.$.$.$.$.$.$.$.$.$.$.$.$.$.$.$.$.$.",
"$.$.$.$.$.$.$.$.$.$.$.$.$.$.$.$.$.$.$.$.$.$.$.$.$.$.$.$.$.$.$.$.$.$.$.$.$.$.$.$.$.$.$.$.$.$.$.$.$.$.$.$.$.$.$.$.$.$.$.$.$.$.$.$.",
"$.$.$.$.$.$.$.$.$.$.$.$.$.$.$.$.$.$.$.$.$.$.$.$.$.$.$.$.$.$.$.$.$.$.                    $.$.$.$.$.$.$.$.$.$.$.$.$.$.$.$.$.$.$.$.",
"$.$.$.$.$.$.$.$.$.$.$.$.$.$.$.$.$.$.$.$.$.$.$.$.$.$.$.$.$.        O ; ; , ; , , ; ; , &             $.$.$.$.$.$.$.$.$.$.$.$.$.$.",
"$.$.$.$.$.$.$.$.$.$.$.$.$.$.$.$.$.$.$.$.$.$.$.$.$.$.$.$.          O u p p p p p p p p ;               $.$.$.$.$.$.$.$.$.$.$.$.$.",
"$.$.$.$.          $.$.$.$.$.$.$.$.$.$.$.$.$.$.$.$.$.$.X t p p p p j V V V S S V V S D p < s b b b b b :   $.$.$.$.$.$.$.$.$.$.$.",
"$.$.$.            $.$.$.$.$.$.$.$.$.$.$.$.$.$.$.$.$.  o N E R Q R E R R E R R E R R R V p I o.X.X.X.| >   $.$.$.$.$.$.$.$.$.$.$.",
"$.$.$.  X y j w < o     $.$.$.$.$.$.$.$.$.$.$.      y k H R R Y m m T R R R R G v S T P D S Z U ~ ' ~ v a %       $.$.$.$.$.$.$.",
"$.$.$.  o V Y k t o       $.$.$.$.$.$.$.$.$.    X X v E R R R P j k Y R T R R D i m R T E M i S T R R R Y *   X X $.$.$.$.$.$.$.",
"$.$.$.$.$.- < V S w r x i X $.$.$.$.$.      ; w a v z z P T m z F H T P z N R D p m T D l V G Y E ' { { [ B v J n #   $.$.$.$.$.",
"$.$.$.$.$.  O V H k l T m X X $.$.$.$.o X X 0 j G R v a G P k k Y R T G p z R D i m E N u S T E E } X.| | ! ! ..` O   $.$.$.$.$.",
"$.$.$.$.$.$.$.& , D G k a r ,       q N N N D H Y R P G x l F P R P l k p z R D p m E V p V R ' } +.#.f > ( { ~ K @   $.$.$.$.$.",
"$.$.$.$.$.$.$.  @ D G a a p w X o o r E R E R R Y Y T R z j H Y R P j a p z R D p m T V p V R [ X.O.@.1 X / ..E F % O $.$.$.$.$.",
"$.$.$.$.$.$.$.$.$.$ , G D p i r a S H R R R R R m k G R Y H l l Y R P D a z T F p v T V u V R [ | d : X O / ..E E ) J O   $.$.$.",
"$.$.$.$.$.$.$.$.$.  % Y G a p p v Y Y T T P T R m j G E Y P l k Y R E H p z T F p v R V p V E _ { s # # = ( | W E X./ O   $.$.$.",
"$.$.$.$.$.$.$.$.$.  % Y H a p p a j N R N a D R Y Y T T z k G Y T R R H p z R D i m R N p V R E E _ ` ` ` W E R W X.) O   $.$.$.",
"$.$.$.$.$.$.$.$.$.$ ; G D p u r r r v R V k D R Y P Y R x k G Y T R R H p x R D p m R V p V R R T ]  ...} W T R R ) J O   $.$.$.",
"$.$.$.$.$.$.$.  @ D D j p a w X X X r E R T T R m a G R T P k j P R R H p z R D i m R N i V R R E E E ! E E E E G % O $.$.$.$.$.",
"$.$.$.$.$.$.$.* ; D G l a r <       q N N N H R m k H R P G x x Y T P S a z R D p m R V p V R K A A A A A A A A c O   $.$.$.$.$.",
"$.$.$.$.$.  O S H j l T v o X $.$.$.$.X X X a Q R R R T l j H T R P j i i z R D i m R V i V E g 6 6 7 7 6 7 7 8 5 .   $.$.$.$.$.",
"$.$.$.$.$.- < N V r r x i X $.$.$.$.$.      r x x x P T m x D H Y P m k p z R D p m R D l V G h 9 9 9 9 9 4 3 3 2 .   $.$.$.$.$.",
"$.$.$.  o V Y k y o     X $.$.$.$.$.$.$.$.$.  X   o x Q R Y k j Y R R H i l R D i m R R R m p V T T Y R P %       $.$.$.$.$.$.$.",
"$.$.$.  X y j w < o     $.$.$.$.$.$.$.$.$.$.$.      y l H T m m Y R R P m V R H x D R H D V v G T T T m a %       $.$.$.$.$.$.$.",
"$.$.$.            $.$.$.$.$.$.$.$.$.$.$.$.$.$.$.$.$.  o N E E R Q R R R E T E R R T E V p S E E E E Y -   $.$.$.$.$.$.$.$.$.$.$.",
"$.$.$.$.          $.$.$.$.$.$.$.$.$.$.$.$.$.$.$.$.$.$.X t p i p i j V D V S S V S S S p , r p p p p p *   $.$.$.$.$.$.$.$.$.$.$.",
"$.$.$.$.$.$.$.$.$.$.$.$.$.$.$.$.$.$.$.$.$.$.$.$.$.$.$.$.          + y p p p p p p p a ;               $.$.$.$.$.$.$.$.$.$.$.$.$.",
"$.$.$.$.$.$.$.$.$.$.$.$.$.$.$.$.$.$.$.$.$.$.$.$.$.$.$.$.$.        + ; , ; , ; ; , ; ; &             $.$.$.$.$.$.$.$.$.$.$.$.$.$.",
"$.$.$.$.$.$.$.$.$.$.$.$.$.$.$.$.$.$.$.$.$.$.$.$.$.$.$.$.$.$.$.$.$.$.                    $.$.$.$.$.$.$.$.$.$.$.$.$.$.$.$.$.$.$.$.",
"$.$.$.$.$.$.$.$.$.$.$.$.$.$.$.$.$.$.$.$.$.$.$.$.$.$.$.$.$.$.$.$.$.$.$.$.$.$.$.$.$.$.$.$.$.$.$.$.$.$.$.$.$.$.$.$.$.$.$.$.$.$.$.$.",
"$.$.$.$.$.$.$.$.$.$.$.$.$.$.$.$.$.$.$.$.$.$.$.$.$.$.$.$.$.$.$.$.$.$.$.$.$.$.$.$.$.$.$.$.$.$.$.$.$.$.$.$.$.$.$.$.$.$.$.$.$.$.$.$.",
"$.$.$.$.$.$.$.$.$.$.$.$.$.$.$.$.$.$.$.$.$.$.$.$.$.$.$.$.$.$.$.$.$.$.$.$.$.$.$.$.$.$.$.$.$.$.$.$.$.$.$.$.$.$.$.$.$.$.$.$.$.$.$.$.",
"$.$.$.$.$.$.$.$.$.$.$.$.$.$.$.$.$.$.$.$.$.$.$.$.$.$.$.$.$.$.$.$.$.$.$.$.$.$.$.$.$.$.$.$.$.$.$.$.$.$.$.$.$.$.$.$.$.$.$.$.$.$.$.$.",
"$.$.$.$.$.$.$.$.$.$.$.$.$.$.$.$.$.$.$.$.$.$.$.$.$.$.$.$.$.$.$.$.$.$.$.$.$.$.$.$.$.$.$.$.$.$.$.$.$.$.$.$.$.$.$.$.$.$.$.$.$.$.$.$.",
"$.$.$.$.$.$.$.$.$.$.$.$.$.$.$.$.$.$.$.$.$.$.$.$.$.$.$.$.$.$.$.$.$.$.$.$.$.$.$.$.$.$.$.$.$.$.$.$.$.$.$.$.$.$.$.$.$.$.$.$.$.$.$.$.",
"$.$.$.$.$.$.$.$.$.$.$.$.$.$.$.$.$.$.$.$.$.$.$.$.$.$.$.$.$.$.$.$.$.$.$.$.$.$.$.$.$.$.$.$.$.$.$.$.$.$.$.$.$.$.$.$.$.$.$.$.$.$.$.$.",
"$.$.$.$.$.$.$.$.$.$.$.$.$.$.$.$.$.$.$.$.$.$.$.$.$.$.$.$.$.$.$.$.$.$.$.$.$.$.$.$.$.$.$.$.$.$.$.$.$.$.$.$.$.$.$.$.$.$.$.$.$.$.$.$.",
"$.$.$.$.$.$.$.$.$.$.$.$.$.$.$.$.$.$.$.$.$.$.$.$.$.$.$.$.$.$.$.$.$.$.$.$.$.$.$.$.$.$.$.$.$.$.$.$.$.$.$.$.$.$.$.$.$.$.$.$.$.$.$.$.",
"$.$.$.$.$.$.$.$.$.$.$.$.$.$.$.$.$.$.$.$.$.$.$.$.$.$.$.$.$.$.$.$.$.$.$.$.$.$.$.$.$.$.$.$.$.$.$.$.$.$.$.$.$.$.$.$.$.$.$.$.$.$.$.$.",
"$.$.$.$.$.$.$.$.$.$.$.$.$.$.$.$.$.$.$.$.$.$.$.$.$.$.$.$.$.$.$.$.$.$.$.$.$.$.$.$.$.$.$.$.$.$.$.$.$.$.$.$.$.$.$.$.$.$.$.$.$.$.$.$.",
"$.$.$.$.$.$.$.$.$.$.$.$.$.$.$.$.$.$.$.$.$.$.$.$.$.$.$.$.$.$.$.$.$.$.$.$.$.$.$.$.$.$.$.$.$.$.$.$.$.$.$.$.$.$.$.$.$.$.$.$.$.$.$.$.",
"$.$.$.$.$.$.$.$.$.$.$.$.$.$.$.$.$.$.$.$.$.$.$.$.$.$.$.$.$.$.$.$.$.$.$.$.$.$.$.$.$.$.$.$.$.$.$.$.$.$.$.$.$.$.$.$.$.$.$.$.$.$.$.$.",
"$.$.$.$.$.$.$.$.$.$.$.$.$.$.$.$.$.$.$.$.$.$.$.$.$.$.$.$.$.$.$.$.$.$.$.$.$.$.$.$.$.$.$.$.$.$.$.$.$.$.$.$.$.$.$.$.$.$.$.$.$.$.$.$.",
"$.$.$.$.$.$.$.$.$.$.$.$.$.$.$.$.$.$.$.$.$.$.$.$.$.$.$.$.$.$.$.$.$.$.$.$.$.$.$.$.$.$.$.$.$.$.$.$.$.$.$.$.$.$.$.$.$.$.$.$.$.$.$.$.",
"$.$.$.$.$.$.$.$.$.$.$.$.$.$.$.$.$.$.$.$.$.$.$.$.$.$.$.$.$.$.$.$.$.$.$.$.$.$.$.$.$.$.$.$.$.$.$.$.$.$.$.$.$.$.$.$.$.$.$.$.$.$.$.$.",
"$.$.$.$.$.$.$.$.$.$.$.$.$.$.$.$.$.$.$.$.$.$.$.$.$.$.$.$.$.$.$.$.$.$.$.$.$.$.$.$.$.$.$.$.$.$.$.$.$.$.$.$.$.$.$.$.$.$.$.$.$.$.$.$.",
"$.$.$.$.$.$.$.$.$.$.$.$.$.$.$.$.$.$.$.$.$.$.$.$.$.$.$.$.$.$.$.$.$.$.$.$.$.$.$.$.$.$.$.$.$.$.$.$.$.$.$.$.$.$.$.$.$.$.$.$.$.$.$.$.",
"$.$.$.$.$.$.$.$.$.$.$.$.$.$.$.$.$.$.$.$.$.$.$.$.$.$.$.$.$.$.$.$.$.$.$.$.$.$.$.$.$.$.$.$.$.$.$.$.$.$.$.$.$.$.$.$.$.$.$.$.$.$.$.$."
};
