/* XPM */
static char *_00ebe505efc420f9dae6f67ac4270c5K6qDq0SRMsV30X5w[] = {
/* columns rows colors chars-per-pixel */
"64 64 2 1 ",
"  c #2F00FF",
". c #00FFEE",
/* pixels */
"................................................................",
"................................................................",
"................................................................",
"................................................................",
"................................................................",
"................................................................",
"............  ..................................................",
"........    ..   ...............................................",
".....   .........  .............................................",
"...  ..............    .....        ............................",
".......................     ....................................",
"................................................................",
"................................................................",
"................................................................",
"................................................................",
"................................................................",
"................................................................",
"................................................................",
"................................................................",
"................................................................",
"...................................          ...................",
"................................   .......... .............  ...",
"............................    .............. ..........  .....",
"..........................  ...................   .      .......",
".................................................. .............",
"................................................................",
"................................................................",
"................................................................",
"................................................................",
"................................................................",
"................................................................",
"................................................................",
"................................................................",
"................................................................",
"................................................................",
"......             .............................................",
"....  .............   ..........................................",
"..   .................  ........................................",
"........................ .......  ..............................",
".........................       ................................",
"................................................................",
"................................................................",
"................................................................",
"................................................................",
"................................................................",
"................................................................",
"................................................................",
"................................................................",
"................................................................",
"................................................................",
"......................................           ...............",
"...................................   ........... ..............",
".................................  ...............  ............",
"..............................   ...................          ..",
"............................. ..................................",
"................................................................",
"................................................................",
"................................................................",
"................................................................",
"................................................................",
"................................................................",
"................................................................",
"................................................................",
"................................................................"
};
