/* XPM */
static char *fdf41febee5d432d814332c70c426b21q1J8GSgEQ2W5iXMV[] = {
/* columns rows colors chars-per-pixel */
"64 64 2 1 ",
"  c black",
". c #FFEB3B",
/* pixels */
"................................................................",
"................................................................",
"..............................     .............................",
"........................      .....      .......................",
"...................     .................     ..................",
".................. ........................... .................",
"................. ..............................................",
"...............  ...............................................",
".............. .................................................",
".............  .................................................",
"............. ..................................................",
"............ ...................................................",
"............ ...................................................",
"............ ...................................................",
"............ ...................................................",
"............ ...................................................",
"............. ..................................................",
"............. ..................................................",
".............. .................................................",
"...............  ...............................................",
".................  .............................................",
"...................  ...........................................",
".....................    .......................................",
".........................     ..................................",
"..............................      ............................",
"....................................       .....................",
"...........................................      ...............",
".................................................  .............",
"................................................... ............",
".................................................... ...........",
".................................................... ...........",
".................................................... ...........",
"..................................................... ..........",
"..................................................... ..........",
"..................................................... ..........",
"..................................................... ..........",
".................................................... ...........",
".................................................... ...........",
".................................................... ...........",
"................................................... ............",
".................................................. .............",
".................................................. .............",
"................................................  ..............",
"............................................... ................",
".............................................. .................",
"............................................. ..................",
"...............   .........................  ...................",
"..................    ...................  .....................",
"......................    ............   .......................",
".........................             ..........................",
"................................................................",
"................................................................",
"................................................................",
"................................................................",
"................................................................",
"................................................................",
"................................................................",
"................................................................",
"................................................................",
"................................................................",
"................................................................",
"................................................................",
"................................................................",
"................................................................"
};
