/* XPM */
static char *_4a33800819e4f7dc42ea3ad40dabbabSYzAdrifvZuEpCKk[] = {
/* columns rows colors chars-per-pixel */
"64 64 2 1 ",
"  c #06109C",
". c #0011FF",
/* pixels */
" .............................................................. ",
"   ...........................................................  ",
"    ........................................................  ..",
"      ..................................................... ....",
"       ..................................................  .....",
"         ..............................................  .......",
"           ........................................... .........",
"            ........................................  ..........",
"              ....................................  ............",
"               .................................. ..............",
"                 ..............................  ...............",
"                  ...........................  .................",
"                    .......................  ...................",
"                     ..................... .....................",
"                       .................  ......................",
"                         .............  ........................",
"                          ........... ..........................",
"                            .......  ...........................",
"                             ....  .............................",
"                               . ...............................",
"                                ................................",
"                                ................................",
"                                ................................",
"                                ................................",
"                                ................................",
"                                ................................",
"                                ................................",
"                                ................................",
"                                ................................",
"                                ................................",
"                                ................................",
"                                ................................",
"                                ................................",
"                                ................................",
"                                ................................",
"                                ................................",
"                                ................................",
"                                ................................",
"                                ................................",
"                                ................................",
"                                ................................",
"                                ................................",
"                                ................................",
"                                ................................",
"                                ................................",
"                                ................................",
"                                ................................",
"                                ................................",
"                                ................................",
"                                ................................",
"                                ................................",
"                                ................................",
"                                ................................",
"                                ................................",
"                                ................................",
"                                ................................",
"                                ................................",
"                                ................................",
"                                ................................",
"                                ................................",
"                                ................................",
"                                ................................",
"                                ................................",
"                                ................................"
};
